<svg width="241" height="47" viewBox="0 0 241 47" fill="none" xmlns="http://www.w3.org/2000/svg">
<path d="M0 28.4822L13.2528 20.3615L20.8808 26.4521L22.4219 46.4334L13.0216 46.3266L14.4086 32.4358L12.7905 31.1536L4.85422 39.7017L0 28.4822Z" fill="#B4C0D3"/>
<path d="M21.6924 23.9963L33.3846 32.5886L38 24.306L28.6154 20.5129V18.6551L38 14.7847L33.3846 6.57944L21.6924 15.1718V23.9963Z" fill="#00D3AB"/>
<path d="M20.8461 14.4754L22.3845 0L12.9999 0.154815L14.3845 10.2179L12.7692 11.1468L4.76921 4.95413L0 13.0046L13.2307 18.8876L20.8461 14.4754Z" fill="#4876EF"/>
<path d="M59.12 21.37H70.915V25.78H59.12V21.37ZM59.54 31.45H72.875V36H53.905V11.5H72.42V16.05H59.54V31.45ZM88.4464 16.89C89.9398 16.89 91.2698 17.1933 92.4364 17.8C93.6264 18.3833 94.5598 19.2933 95.2364 20.53C95.9131 21.7433 96.2514 23.3067 96.2514 25.22V36H90.7914V26.06C90.7914 24.5433 90.4531 23.4233 89.7764 22.7C89.1231 21.9767 88.1898 21.615 86.9764 21.615C86.1131 21.615 85.3314 21.8017 84.6314 22.175C83.9548 22.525 83.4181 23.0733 83.0214 23.82C82.6481 24.5667 82.4614 25.5233 82.4614 26.69V36H77.0014V17.17H82.2164V22.385L81.2364 20.81C81.9131 19.55 82.8814 18.5817 84.1414 17.905C85.4014 17.2283 86.8364 16.89 88.4464 16.89ZM110.192 43.07C108.419 43.07 106.704 42.8483 105.047 42.405C103.414 41.985 102.049 41.3433 100.952 40.48L103.122 36.56C103.916 37.2133 104.919 37.7267 106.132 38.1C107.369 38.4967 108.582 38.695 109.772 38.695C111.709 38.695 113.109 38.2633 113.972 37.4C114.859 36.5367 115.302 35.2533 115.302 33.55V30.715L115.652 25.99L115.582 21.23V17.17H120.762V32.85C120.762 36.35 119.852 38.9283 118.032 40.585C116.212 42.2417 113.599 43.07 110.192 43.07ZM109.352 35.09C107.602 35.09 106.016 34.7167 104.592 33.97C103.192 33.2 102.061 32.1383 101.197 30.785C100.357 29.4083 99.9374 27.81 99.9374 25.99C99.9374 24.1467 100.357 22.5483 101.197 21.195C102.061 19.8183 103.192 18.7567 104.592 18.01C106.016 17.2633 107.602 16.89 109.352 16.89C110.939 16.89 112.339 17.2167 113.552 17.87C114.766 18.5 115.711 19.4917 116.387 20.845C117.064 22.175 117.402 23.89 117.402 25.99C117.402 28.0667 117.064 29.7817 116.387 31.135C115.711 32.465 114.766 33.4567 113.552 34.11C112.339 34.7633 110.939 35.09 109.352 35.09ZM110.437 30.61C111.394 30.61 112.246 30.4233 112.992 30.05C113.739 29.6533 114.322 29.105 114.742 28.405C115.162 27.705 115.372 26.9 115.372 25.99C115.372 25.0567 115.162 24.2517 114.742 23.575C114.322 22.875 113.739 22.3383 112.992 21.965C112.246 21.5683 111.394 21.37 110.437 21.37C109.481 21.37 108.629 21.5683 107.882 21.965C107.136 22.3383 106.541 22.875 106.097 23.575C105.677 24.2517 105.467 25.0567 105.467 25.99C105.467 26.9 105.677 27.705 106.097 28.405C106.541 29.105 107.136 29.6533 107.882 30.05C108.629 30.4233 109.481 30.61 110.437 30.61ZM125.844 36V10.03H131.304V36H125.844ZM136.372 36V17.17H141.832V36H136.372ZM139.102 14.545C138.098 14.545 137.282 14.2533 136.652 13.67C136.022 13.0867 135.707 12.3633 135.707 11.5C135.707 10.6367 136.022 9.91333 136.652 9.33C137.282 8.74666 138.098 8.455 139.102 8.455C140.105 8.455 140.922 8.735 141.552 9.295C142.182 9.83167 142.497 10.5317 142.497 11.395C142.497 12.305 142.182 13.0633 141.552 13.67C140.945 14.2533 140.128 14.545 139.102 14.545ZM153.234 36.28C151.624 36.28 150.072 36.0933 148.579 35.72C147.109 35.3233 145.942 34.8333 145.079 34.25L146.899 30.33C147.762 30.8667 148.777 31.31 149.944 31.66C151.134 31.9867 152.301 32.15 153.444 32.15C154.704 32.15 155.591 31.9983 156.104 31.695C156.641 31.3917 156.909 30.9717 156.909 30.435C156.909 29.9917 156.699 29.665 156.279 29.455C155.882 29.2217 155.346 29.0467 154.669 28.93C153.992 28.8133 153.246 28.6967 152.429 28.58C151.636 28.4633 150.831 28.3117 150.014 28.125C149.197 27.915 148.451 27.6117 147.774 27.215C147.097 26.8183 146.549 26.2817 146.129 25.605C145.732 24.9283 145.534 24.0533 145.534 22.98C145.534 21.79 145.872 20.74 146.549 19.83C147.249 18.92 148.252 18.2083 149.559 17.695C150.866 17.1583 152.429 16.89 154.249 16.89C155.532 16.89 156.839 17.03 158.169 17.31C159.499 17.59 160.607 17.9983 161.494 18.535L159.674 22.42C158.764 21.8833 157.842 21.5217 156.909 21.335C155.999 21.125 155.112 21.02 154.249 21.02C153.036 21.02 152.149 21.1833 151.589 21.51C151.029 21.8367 150.749 22.2567 150.749 22.77C150.749 23.2367 150.947 23.5867 151.344 23.82C151.764 24.0533 152.312 24.24 152.989 24.38C153.666 24.52 154.401 24.6483 155.194 24.765C156.011 24.8583 156.827 25.01 157.644 25.22C158.461 25.43 159.196 25.7333 159.849 26.13C160.526 26.5033 161.074 27.0283 161.494 27.705C161.914 28.3583 162.124 29.2217 162.124 30.295C162.124 31.4617 161.774 32.5 161.074 33.41C160.374 34.2967 159.359 34.9967 158.029 35.51C156.722 36.0233 155.124 36.28 153.234 36.28ZM176.938 16.89C178.431 16.89 179.761 17.1933 180.928 17.8C182.118 18.3833 183.051 19.2933 183.728 20.53C184.404 21.7433 184.743 23.3067 184.743 25.22V36H179.283V26.06C179.283 24.5433 178.944 23.4233 178.268 22.7C177.614 21.9767 176.681 21.615 175.468 21.615C174.604 21.615 173.823 21.8017 173.123 22.175C172.446 22.525 171.909 23.0733 171.513 23.82C171.139 24.5667 170.953 25.5233 170.953 26.69V36H165.493V10.03H170.953V22.385L169.728 20.81C170.404 19.55 171.373 18.5817 172.633 17.905C173.893 17.2283 175.328 16.89 176.938 16.89ZM190.077 36V11.5H200.682C202.875 11.5 204.765 11.8617 206.352 12.585C207.939 13.285 209.164 14.3 210.027 15.63C210.89 16.96 211.322 18.5467 211.322 20.39C211.322 22.21 210.89 23.785 210.027 25.115C209.164 26.445 207.939 27.4717 206.352 28.195C204.765 28.895 202.875 29.245 200.682 29.245H193.227L195.747 26.69V36H190.077ZM195.747 27.32L193.227 24.625H200.367C202.117 24.625 203.424 24.2517 204.287 23.505C205.15 22.7583 205.582 21.72 205.582 20.39C205.582 19.0367 205.15 17.9867 204.287 17.24C203.424 16.4933 202.117 16.12 200.367 16.12H193.227L195.747 13.425V27.32ZM232.17 11.5H237.84V36H232.17V11.5ZM221.04 36H215.37V11.5H221.04V36ZM232.59 25.955H220.62V21.16H232.59V25.955Z" fill="#4876EE"/>
</svg>
