<svg width="41" height="41" viewBox="0 0 41 41" fill="none" xmlns="http://www.w3.org/2000/svg">
<rect x="0.563416" y="0.366638" width="40" height="39.7091" rx="19.8545" transform="rotate(-0.19465 0.563416 0.366638)" fill="#0077FF"/>
<path d="M21.6368 27.0988C14.1203 27.1244 9.81531 21.9219 9.60718 13.2415L13.3723 13.2287C13.5176 19.5999 16.3025 22.2894 18.503 22.8385L18.4703 13.2113L22.0156 13.1993L22.0343 18.6945C24.2046 18.4507 26.4772 15.9388 27.2373 13.1816L30.7826 13.1695C30.4975 14.5991 29.924 15.9537 29.0982 17.1487C28.2723 18.3436 27.2118 19.3531 25.9829 20.1141C27.3598 20.8009 28.5773 21.7756 29.5549 22.9737C30.5325 24.1718 31.248 25.5662 31.6543 27.0648L27.7517 27.0781C27.3872 25.7765 26.6513 24.6127 25.6363 23.7326C24.6213 22.8526 23.3723 22.2953 22.0459 22.1308L22.0628 27.0974L21.6368 27.0988Z" fill="white"/>
</svg>
