<svg width="41" height="41" viewBox="0 0 41 41" fill="none" xmlns="http://www.w3.org/2000/svg">
<rect x="0.563721" y="0.539917" width="40" height="39.7091" rx="19.8545" transform="rotate(-0.19465 0.563721 0.539917)" fill="#0B84EE"/>
<path d="M22.2894 20.6829L26.0115 20.6703L26.5831 16.8917L22.2758 16.9063L22.2688 14.8423C22.2634 13.2734 22.772 11.8805 24.2413 11.8755L26.6024 11.8675L26.5912 8.57178C26.1761 8.51724 25.2984 8.39774 23.6405 8.40337C20.1788 8.41513 18.1555 10.2479 18.1696 14.4078L18.1782 16.9203L14.6195 16.9324L14.6323 20.7089L18.191 20.6968L18.2263 31.0769C18.9314 31.1804 19.6455 31.2498 20.3782 31.2473C21.0406 31.2451 21.6869 31.1824 22.3247 31.094L22.2894 20.6829Z" fill="white"/>
</svg>
