<svg width="41" height="40" viewBox="0 0 41 40" fill="none" xmlns="http://www.w3.org/2000/svg">
<rect x="0.56488" y="0.232941" width="40" height="39.7091" rx="19.8545" transform="rotate(-0.19465 0.56488 0.232941)" fill="#48C95F"/>
<path d="M28.5322 12.1128C26.55 10.1651 23.9121 9.08821 21.1317 9.09766C15.3512 9.1173 10.6841 13.7659 10.7035 19.4844C10.7096 21.294 11.228 23.102 12.1112 24.6191L10.666 29.9806L16.222 28.514C17.7613 29.305 19.4457 29.7336 21.2018 29.7277C26.9822 29.708 31.6494 25.0594 31.63 19.3409C31.5477 16.6629 30.5144 14.0605 28.5322 12.1128ZM26.2281 23.1234C26.0106 23.7032 24.9882 24.2858 24.4762 24.3599C24.0375 24.4338 23.4521 24.4358 22.8662 24.293C22.4999 24.1495 21.9872 24.0064 21.4009 23.7189C18.763 22.642 17.0713 20.0419 16.9242 19.8252C16.7774 19.6809 15.822 18.4536 15.8175 17.1506C15.8131 15.8477 16.4697 15.2664 16.6882 14.9761C16.9067 14.6858 17.1994 14.6848 17.4189 14.6841C17.5653 14.6836 17.7848 14.6828 17.9311 14.6823C18.0775 14.6818 18.2967 14.6087 18.518 15.1146C18.7392 15.6206 19.2558 16.9218 19.3292 16.9939C19.4029 17.1385 19.4034 17.2832 19.3307 17.4283C19.258 17.5733 19.1853 17.7183 19.0395 17.8636C18.8936 18.0088 18.748 18.2265 18.6751 18.2991C18.5293 18.4444 18.3834 18.5897 18.5305 18.8063C18.6778 19.0954 19.1927 19.8899 20.0001 20.611C21.0274 21.4762 21.8332 21.763 22.1264 21.9067C22.4196 22.0505 22.5657 21.9776 22.7115 21.8324C22.8574 21.6871 23.3676 21.1063 23.513 20.8162C23.6583 20.5262 23.8781 20.5978 24.0978 20.6695C24.3176 20.7411 25.6369 21.3881 25.8569 21.5321C26.15 21.6759 26.2966 21.7478 26.37 21.8199C26.444 22.0368 26.4457 22.5435 26.2281 23.1234Z" fill="white"/>
</svg>
