<svg width="41" height="41" viewBox="0 0 41 41" fill="none" xmlns="http://www.w3.org/2000/svg">
<rect x="0.56427" y="0.886414" width="40" height="39.7091" rx="19.8545" transform="rotate(-0.19465 0.56427 0.886414)" fill="#F40000"/>
<path fill-rule="evenodd" clip-rule="evenodd" d="M11.918 27.708C11.5253 27.5942 11.1667 27.3904 10.8724 27.114C10.5781 26.8376 10.3567 26.4966 10.227 26.1199C9.48636 24.1728 9.24122 16.0328 10.6494 14.4209C11.1181 13.8965 11.7813 13.5724 12.495 13.5189C16.2861 13.1108 28.0035 13.1237 29.3508 13.5933C29.7297 13.7111 30.0762 13.9103 30.3643 14.1763C30.6524 14.4422 30.8746 14.7679 31.0144 15.1289C31.8232 17.1416 31.8753 24.4656 30.9439 26.4052C30.6969 26.9101 30.2817 27.3198 29.7653 27.5684C28.354 28.2582 13.7958 28.2944 11.918 27.708ZM17.9267 23.8675L24.7115 20.4195L17.9033 16.9913L17.9267 23.8675Z" fill="white"/>
</svg>
