<svg width="41" height="41" viewBox="0 0 41 41" fill="none" xmlns="http://www.w3.org/2000/svg">
<rect x="0.563965" y="0.713165" width="40" height="39.7091" rx="19.8545" transform="rotate(-0.19465 0.563965 0.713165)" fill="url(#paint0_radial_670_21313)"/>
<path d="M20.6037 12.3665C23.2543 12.3575 23.6157 12.3563 24.7001 12.3526C25.6639 12.3493 26.1466 12.5869 26.5085 12.7053C26.9912 12.9428 27.3531 13.0612 27.7157 13.4188C28.0784 13.7764 28.3206 14.1344 28.4427 14.6124C28.5644 14.9708 28.6865 15.4488 28.8102 16.4053C28.8139 17.4817 28.8147 17.7209 28.8241 20.4718C28.8334 23.2227 28.8342 23.462 28.8379 24.5384C28.8411 25.4952 28.6018 25.9745 28.4825 26.3337C28.2432 26.8129 28.1239 27.1722 27.7637 27.5322C27.4035 27.8922 27.0428 28.1327 26.5613 28.2539C26.2003 28.3748 25.7188 28.496 24.7553 28.6189C23.671 28.6226 23.43 28.6234 20.659 28.6328C17.8879 28.6422 17.6469 28.643 16.5626 28.6467C15.5987 28.65 15.116 28.4124 14.7542 28.294C14.2714 28.0565 13.9096 27.9381 13.5469 27.5805C13.1842 27.2229 12.9421 26.8649 12.82 26.3869C12.6983 26.0285 12.5761 25.5505 12.4524 24.5941C12.4488 23.5176 12.4479 23.2784 12.4386 20.5275C12.4293 17.7766 12.4284 17.5374 12.4248 16.4609C12.4215 15.5041 12.6609 15.0248 12.7801 14.6656C13.0195 14.1864 13.1387 13.8272 13.499 13.4671C13.8592 13.1071 14.2198 12.8666 14.7013 12.7454C15.0624 12.6246 15.5439 12.5033 16.5073 12.3804C17.5917 12.3767 17.9531 12.3755 20.6037 12.3665ZM20.5976 10.5724C17.8265 10.5819 17.5856 10.5827 16.5012 10.5864C15.4169 10.59 14.6948 10.8317 14.0932 11.073C13.4916 11.3142 12.8905 11.6751 12.2901 12.2752C11.6897 12.8752 11.4504 13.3545 11.0914 14.0733C10.8524 14.6722 10.7344 15.3902 10.6176 16.4671C10.6212 17.5435 10.6224 17.9023 10.6314 20.5336C10.6407 23.2845 10.6415 23.5238 10.6452 24.6002C10.6489 25.6766 10.8923 26.3935 11.1352 26.9907C11.3782 27.5879 11.7417 28.1847 12.3462 28.7806C12.9506 29.3766 13.4333 29.6142 14.1574 29.9706C14.7607 30.2077 15.484 30.3249 16.5687 30.4408C17.653 30.4371 18.0145 30.4359 20.6651 30.4269C23.3156 30.4179 23.6771 30.4166 24.7614 30.413C25.8457 30.4093 26.5678 30.1676 27.1694 29.9264C27.771 29.6851 28.3722 29.3242 28.9726 28.7242C29.5729 28.1241 29.8123 27.6449 30.1713 26.926C30.4102 26.3271 30.5283 25.6091 30.6451 24.5323C30.6414 23.4558 30.6402 23.097 30.6313 20.4657C30.6223 17.8344 30.6211 17.4756 30.6175 16.3991C30.6138 15.3227 30.3704 14.6059 30.1274 14.0087C29.8844 13.4114 29.5209 12.8146 28.9165 12.2187C28.3121 11.6227 27.8293 11.3851 27.1052 11.0288C26.502 10.7916 25.7787 10.6744 24.694 10.5585C23.6096 10.5622 23.3687 10.563 20.5976 10.5724Z" fill="white"/>
<path d="M20.6139 15.3566C17.7223 15.3665 15.4409 17.6467 15.4506 20.5173C15.4604 23.3878 17.7572 25.6525 20.6488 25.6427C23.5403 25.6328 25.8218 23.3526 25.812 20.4821C25.8023 17.6115 23.5054 15.3468 20.6139 15.3566ZM20.6427 23.8486C18.8355 23.8547 17.2644 22.4248 17.2579 20.5111C17.2518 18.717 18.6922 17.1573 20.6199 17.1507C22.4272 17.1446 23.9983 18.5745 24.0048 20.4882C24.0109 22.2823 22.4499 23.8425 20.6427 23.8486Z" fill="white"/>
<path d="M25.9187 16.4151C26.5841 16.4128 27.1217 15.8755 27.1194 15.2149C27.1172 14.5544 26.576 14.0207 25.9106 14.023C25.2452 14.0252 24.7076 14.5626 24.7098 15.2231C24.7121 15.8837 25.2533 16.4173 25.9187 16.4151Z" fill="white"/>
<defs>
<radialGradient id="paint0_radial_670_21313" cx="0" cy="0" r="1" gradientUnits="userSpaceOnUse" gradientTransform="translate(41.3686 1.51976) scale(92.3719 91.7001)">
<stop stop-color="#F9ED32"/>
<stop offset="0.36" stop-color="#EE2A7B"/>
<stop offset="0.44" stop-color="#D22A8A"/>
<stop offset="0.6" stop-color="#8B2AB2"/>
<stop offset="0.83" stop-color="#1B2AF0"/>
<stop offset="0.88" stop-color="#002AFF"/>
</radialGradient>
</defs>
</svg>
