<svg width="41" height="41" viewBox="0 0 41 41" fill="none" xmlns="http://www.w3.org/2000/svg">
<rect x="0.564575" y="1.05969" width="40" height="39.7091" rx="19.8545" transform="rotate(-0.19465 0.564575 1.05969)" fill="#27A6E5"/>
<path d="M28.6069 13.4751L25.6544 29.0611C25.6544 29.0611 25.2376 30.1425 24.0806 29.6285L17.1278 24.1863L17.0956 24.1703C18.0293 23.3025 25.2698 16.5643 25.5862 16.2589C26.076 15.7859 25.77 15.5064 25.2006 15.8644L14.4956 22.9051L10.3517 21.4874C10.3517 21.4874 9.69947 21.2514 9.63504 20.7337C9.56979 20.2152 10.3678 19.9319 10.3678 19.9319L27.2187 13.0695C27.2187 13.0695 28.6034 12.4384 28.6069 13.4751Z" fill="#FEFEFE"/>
</svg>
